<svg id="Layer_1" data-name="Layer 1" xmlns="http://www.w3.org/2000/svg" viewBox="0 0 1440 1440"><defs><style>.cls-1{fill:#64fcda;}</style></defs><title>ngepet</title><path class="cls-1" d="M1216.33,501.11C1005.71,342.74,953.47,153.36,720,153.36S434.29,342.74,223.67,501.11,0,759.07,0,897.85s129,329.79,347.76,329.79h744.48c218.78,0,347.76-191,347.76-329.79S1426.94,659.48,1216.33,501.11Zm-649.08,554C470.37,1007.13,258,890.17,258,786.83,258,705.19,277.55,586,422.86,586c183,0,191.18,84.92,191.54,439.78A32.66,32.66,0,0,1,567.25,1055.11Zm305.5,0a32.66,32.66,0,0,1-47.15-29.32C826,670.93,834.15,586,1017.14,586c145.31,0,164.9,119.18,164.9,200.82C1182,890.17,969.63,1007.13,872.75,1055.11Z"/></svg>